{
	"asset":{
		"generator":"Khronos glTF Blender I/O v4.5.47",
		"version":"2.0"
	},
	"scene":0,
	"scenes":[
		{
			"name":"Scene",
			"nodes":[
				0,
				1,
				2,
				3,
				4,
				5,
				6,
				7,
				8,
				9,
				10,
				11,
				12,
				13,
				14,
				15
			]
		}
	],
	"nodes":[
		{
			"mesh":0,
			"name":"\u0e17\u0e23\u0e07\u0e01\u0e25\u0e21",
			"translation":[
				-0.20116175711154938,
				4.1095476150512695,
				0.1002344936132431
			]
		},
		{
			"mesh":1,
			"name":"\u0e17\u0e23\u0e07\u0e01\u0e25\u0e21.001",
			"rotation":[
				0.013673757202923298,
				-0.00015318361693061888,
				-0.003918990958482027,
				0.9998989105224609
			],
			"scale":[
				0.9999919533729553,
				2.2093119621276855,
				1.089819073677063
			],
			"translation":[
				-0.11010011285543442,
				1.3368996381759644,
				0.06856121122837067
			]
		},
		{
			"mesh":2,
			"name":"\u0e17\u0e23\u0e07\u0e01\u0e25\u0e21.003",
			"rotation":[
				0.5265741944313049,
				0.39630523324012756,
				0.5303146243095398,
				0.533318042755127
			],
			"scale":[
				1.005223274230957,
				0.7255352139472961,
				0.7257859110832214
			],
			"translation":[
				0.065139040350914,
				0.39297086000442505,
				-0.739459753036499
			]
		},
		{
			"mesh":3,
			"name":"\u0e17\u0e23\u0e07\u0e01\u0e25\u0e21.004",
			"rotation":[
				-0.7034649848937988,
				-0.6493526101112366,
				0.25741836428642273,
				0.13120228052139282
			],
			"scale":[
				1.0240130424499512,
				0.7257576584815979,
				0.7261102795600891
			],
			"translation":[
				0.06953047215938568,
				0.2520025074481964,
				0.9866155982017517
			]
		},
		{
			"mesh":4,
			"name":"\u0e17\u0e23\u0e07\u0e01\u0e25\u0e21.002",
			"rotation":[
				0.449249804019928,
				-0.498462438583374,
				0.5059691071510315,
				0.5419456958770752
			],
			"scale":[
				-0.4457536041736603,
				-1.065999150276184,
				-0.34323832392692566
			],
			"translation":[
				-0.7047290205955505,
				-0.5776676535606384,
				1.129339337348938
			]
		},
		{
			"mesh":5,
			"name":"\u0e17\u0e23\u0e07\u0e01\u0e25\u0e21.005",
			"rotation":[
				0.449249804019928,
				-0.498462438583374,
				0.5059691071510315,
				0.5419456958770752
			],
			"scale":[
				-0.4457536041736603,
				-1.065999150276184,
				-0.34323832392692566
			],
			"translation":[
				-0.8362095355987549,
				-0.4252084791660309,
				-0.9249862432479858
			]
		},
		{
			"mesh":6,
			"name":"\u0e17\u0e23\u0e07\u0e01\u0e25\u0e21.006",
			"rotation":[
				-0.04976186901330948,
				-0.20150963962078094,
				-0.2200556993484497,
				0.9531490802764893
			],
			"scale":[
				0.3141641914844513,
				1.3290760517120361,
				0.34049955010414124
			],
			"translation":[
				-1.4000215530395508,
				0.5466167330741882,
				0.42160019278526306
			]
		},
		{
			"mesh":7,
			"name":"\u0e17\u0e23\u0e07\u0e01\u0e25\u0e21.008",
			"rotation":[
				0.42917174100875854,
				-0.5192224979400635,
				0.523107647895813,
				0.522089958190918
			],
			"scale":[
				-0.25712937116622925,
				-0.42576876282691956,
				-0.3007577061653137
			],
			"translation":[
				-2.006757974624634,
				-0.7432225942611694,
				0.4274305999279022
			]
		},
		{
			"mesh":8,
			"name":"\u0e17\u0e23\u0e07\u0e01\u0e25\u0e21.007",
			"rotation":[
				-0.04976186901330948,
				-0.20150963962078094,
				-0.2200556993484497,
				0.9531490802764893
			],
			"scale":[
				0.3141641914844513,
				1.3290760517120361,
				0.34049955010414124
			],
			"translation":[
				-1.4101568460464478,
				0.5267351865768433,
				-0.2703670561313629
			]
		},
		{
			"mesh":9,
			"name":"\u0e17\u0e23\u0e07\u0e01\u0e25\u0e21.009",
			"rotation":[
				0.4291718006134033,
				-0.5192224979400635,
				0.523107647895813,
				0.522089958190918
			],
			"scale":[
				-0.27481478452682495,
				-0.42604750394821167,
				-0.3009437322616577
			],
			"translation":[
				-2.003497362136841,
				-0.7192304134368896,
				-0.2958967387676239
			]
		},
		{
			"mesh":10,
			"name":"\u0e17\u0e23\u0e07\u0e01\u0e25\u0e21.012",
			"rotation":[
				-0.008590447716414928,
				-0.8780763149261475,
				-0.004757022485136986,
				0.47842010855674744
			],
			"scale":[
				0.25669345259666443,
				0.2346055954694748,
				0.40675169229507446
			],
			"translation":[
				-0.906807005405426,
				4.059977054595947,
				0.11267134547233582
			]
		},
		{
			"mesh":11,
			"name":"\u0e17\u0e23\u0e07\u0e01\u0e23\u0e27\u0e22",
			"rotation":[
				0.3517795205116272,
				0.6845862865447998,
				0.08565413951873779,
				0.632658064365387
			],
			"scale":[
				0.672554075717926,
				0.445332795381546,
				0.5947774648666382
			],
			"translation":[
				0.05662459880113602,
				4.92042875289917,
				0.7267014980316162
			]
		},
		{
			"mesh":12,
			"name":"\u0e17\u0e23\u0e07\u0e01\u0e23\u0e27\u0e22.001",
			"rotation":[
				-0.1757495105266571,
				0.6611063480377197,
				-0.2623666822910309,
				0.6805984377861023
			],
			"scale":[
				0.672554075717926,
				0.44533276557922363,
				0.5947774648666382
			],
			"translation":[
				0.08226684480905533,
				4.922597408294678,
				-0.4952242076396942
			]
		},
		{
			"mesh":13,
			"name":"\u0e17\u0e23\u0e07\u0e01\u0e25\u0e21.010",
			"rotation":[
				-0.009281842969357967,
				-0.7824665307998657,
				-0.003205060726031661,
				0.6226152181625366
			],
			"scale":[
				0.2094060182571411,
				0.2952146530151367,
				0.37739214301109314
			],
			"translation":[
				-0.6797468066215515,
				4.478911399841309,
				-0.3639581501483917
			]
		},
		{
			"mesh":14,
			"name":"\u0e17\u0e23\u0e07\u0e01\u0e25\u0e21.011",
			"rotation":[
				-0.07619394361972809,
				0.7361227869987488,
				0.18963398039340973,
				0.6452570557594299
			],
			"scale":[
				0.1967015117406845,
				0.2776241898536682,
				0.3732006847858429
			],
			"translation":[
				-0.7676538825035095,
				4.4711198806762695,
				0.46185848116874695
			]
		},
		{
			"mesh":15,
			"name":"\u0e17\u0e23\u0e07\u0e01\u0e25\u0e21.013",
			"rotation":[
				-0.04976187273859978,
				-0.20150962471961975,
				-0.2200556993484497,
				0.9531490802764893
			],
			"scale":[
				0.3449579179286957,
				1.8982219696044922,
				0.3478136658668518
			],
			"translation":[
				1.492419719696045,
				1.6064221858978271,
				0.09850410372018814
			]
		}
	],
	"meshes":[
		{
			"name":"\u0e17\u0e23\u0e07\u0e01\u0e25\u0e21",
			"primitives":[
				{
					"attributes":{
						"POSITION":0,
						"NORMAL":1,
						"TEXCOORD_0":2
					},
					"indices":3
				}
			]
		},
		{
			"name":"\u0e17\u0e23\u0e07\u0e01\u0e25\u0e21.001",
			"primitives":[
				{
					"attributes":{
						"POSITION":4,
						"NORMAL":5,
						"TEXCOORD_0":6
					},
					"indices":3
				}
			]
		},
		{
			"name":"\u0e17\u0e23\u0e07\u0e01\u0e25\u0e21.005",
			"primitives":[
				{
					"attributes":{
						"POSITION":7,
						"NORMAL":8,
						"TEXCOORD_0":9
					},
					"indices":3
				}
			]
		},
		{
			"name":"\u0e17\u0e23\u0e07\u0e01\u0e25\u0e21.006",
			"primitives":[
				{
					"attributes":{
						"POSITION":10,
						"NORMAL":11,
						"TEXCOORD_0":12
					},
					"indices":3
				}
			]
		},
		{
			"name":"\u0e17\u0e23\u0e07\u0e01\u0e25\u0e21.007",
			"primitives":[
				{
					"attributes":{
						"POSITION":13,
						"NORMAL":14,
						"TEXCOORD_0":15
					},
					"indices":3
				}
			]
		},
		{
			"name":"\u0e17\u0e23\u0e07\u0e01\u0e25\u0e21.008",
			"primitives":[
				{
					"attributes":{
						"POSITION":16,
						"NORMAL":17,
						"TEXCOORD_0":18
					},
					"indices":3
				}
			]
		},
		{
			"name":"\u0e17\u0e23\u0e07\u0e01\u0e25\u0e21.009",
			"primitives":[
				{
					"attributes":{
						"POSITION":19,
						"NORMAL":20,
						"TEXCOORD_0":21
					},
					"indices":3
				}
			]
		},
		{
			"name":"\u0e17\u0e23\u0e07\u0e01\u0e25\u0e21.013",
			"primitives":[
				{
					"attributes":{
						"POSITION":22,
						"NORMAL":23,
						"TEXCOORD_0":24
					},
					"indices":3
				}
			]
		},
		{
			"name":"\u0e17\u0e23\u0e07\u0e01\u0e25\u0e21.016",
			"primitives":[
				{
					"attributes":{
						"POSITION":25,
						"NORMAL":26,
						"TEXCOORD_0":27
					},
					"indices":3
				}
			]
		},
		{
			"name":"\u0e17\u0e23\u0e07\u0e01\u0e25\u0e21.017",
			"primitives":[
				{
					"attributes":{
						"POSITION":28,
						"NORMAL":29,
						"TEXCOORD_0":30
					},
					"indices":3
				}
			]
		},
		{
			"name":"\u0e17\u0e23\u0e07\u0e01\u0e25\u0e21.002",
			"primitives":[
				{
					"attributes":{
						"POSITION":31,
						"NORMAL":32,
						"TEXCOORD_0":33
					},
					"indices":34
				}
			]
		},
		{
			"name":"\u0e17\u0e23\u0e07\u0e01\u0e23\u0e27\u0e22",
			"primitives":[
				{
					"attributes":{
						"POSITION":35,
						"NORMAL":36,
						"TEXCOORD_0":37
					},
					"indices":38
				}
			]
		},
		{
			"name":"\u0e17\u0e23\u0e07\u0e01\u0e23\u0e27\u0e22.002",
			"primitives":[
				{
					"attributes":{
						"POSITION":39,
						"NORMAL":40,
						"TEXCOORD_0":41
					},
					"indices":38
				}
			]
		},
		{
			"name":"\u0e17\u0e23\u0e07\u0e01\u0e25\u0e21.003",
			"primitives":[
				{
					"attributes":{
						"POSITION":42,
						"NORMAL":43,
						"TEXCOORD_0":44
					},
					"indices":34
				}
			]
		},
		{
			"name":"\u0e17\u0e23\u0e07\u0e01\u0e25\u0e21.004",
			"primitives":[
				{
					"attributes":{
						"POSITION":45,
						"NORMAL":46,
						"TEXCOORD_0":47
					},
					"indices":34
				}
			]
		},
		{
			"name":"\u0e17\u0e23\u0e07\u0e01\u0e25\u0e21.010",
			"primitives":[
				{
					"attributes":{
						"POSITION":48,
						"NORMAL":49,
						"TEXCOORD_0":50
					},
					"indices":3
				}
			]
		}
	],
	"accessors":[
		{
			"bufferView":0,
			"componentType":5126,
			"count":2141,
			"max":[
				0.9872310161590576,
				0.9975767135620117,
				0.9872307181358337
			],
			"min":[
				-0.9872305393218994,
				-0.9975767135620117,
				-0.9872310161590576
			],
			"type":"VEC3"
		},
		{
			"bufferView":1,
			"componentType":5126,
			"count":2141,
			"type":"VEC3"
		},
		{
			"bufferView":2,
			"componentType":5126,
			"count":2141,
			"type":"VEC2"
		},
		{
			"bufferView":3,
			"componentType":5123,
			"count":11904,
			"type":"SCALAR"
		},
		{
			"bufferView":4,
			"componentType":5126,
			"count":2141,
			"max":[
				0.9872310161590576,
				0.9975767135620117,
				0.9872307181358337
			],
			"min":[
				-0.9872305393218994,
				-0.9975767135620117,
				-0.9872310161590576
			],
			"type":"VEC3"
		},
		{
			"bufferView":5,
			"componentType":5126,
			"count":2141,
			"type":"VEC3"
		},
		{
			"bufferView":6,
			"componentType":5126,
			"count":2141,
			"type":"VEC2"
		},
		{
			"bufferView":7,
			"componentType":5126,
			"count":2141,
			"max":[
				0.9872310161590576,
				0.9975767135620117,
				0.9872307181358337
			],
			"min":[
				-0.9872305393218994,
				-0.9975767135620117,
				-0.9872310161590576
			],
			"type":"VEC3"
		},
		{
			"bufferView":8,
			"componentType":5126,
			"count":2141,
			"type":"VEC3"
		},
		{
			"bufferView":9,
			"componentType":5126,
			"count":2141,
			"type":"VEC2"
		},
		{
			"bufferView":10,
			"componentType":5126,
			"count":2141,
			"max":[
				0.9872310161590576,
				0.9975767135620117,
				0.9872307181358337
			],
			"min":[
				-0.9872305393218994,
				-0.9975767135620117,
				-0.9872310161590576
			],
			"type":"VEC3"
		},
		{
			"bufferView":11,
			"componentType":5126,
			"count":2141,
			"type":"VEC3"
		},
		{
			"bufferView":12,
			"componentType":5126,
			"count":2141,
			"type":"VEC2"
		},
		{
			"bufferView":13,
			"componentType":5126,
			"count":2141,
			"max":[
				0.9872310161590576,
				0.9975767135620117,
				0.9872307181358337
			],
			"min":[
				-0.9872305393218994,
				-0.9975767135620117,
				-0.9872310161590576
			],
			"type":"VEC3"
		},
		{
			"bufferView":14,
			"componentType":5126,
			"count":2141,
			"type":"VEC3"
		},
		{
			"bufferView":15,
			"componentType":5126,
			"count":2141,
			"type":"VEC2"
		},
		{
			"bufferView":16,
			"componentType":5126,
			"count":2141,
			"max":[
				0.9872310161590576,
				0.9975767135620117,
				0.9872307181358337
			],
			"min":[
				-0.9872305393218994,
				-0.9975767135620117,
				-0.9872310161590576
			],
			"type":"VEC3"
		},
		{
			"bufferView":17,
			"componentType":5126,
			"count":2141,
			"type":"VEC3"
		},
		{
			"bufferView":18,
			"componentType":5126,
			"count":2141,
			"type":"VEC2"
		},
		{
			"bufferView":19,
			"componentType":5126,
			"count":2141,
			"max":[
				0.9872310161590576,
				0.9975767135620117,
				0.9872307181358337
			],
			"min":[
				-0.9872305393218994,
				-0.9975767135620117,
				-0.9872310161590576
			],
			"type":"VEC3"
		},
		{
			"bufferView":20,
			"componentType":5126,
			"count":2141,
			"type":"VEC3"
		},
		{
			"bufferView":21,
			"componentType":5126,
			"count":2141,
			"type":"VEC2"
		},
		{
			"bufferView":22,
			"componentType":5126,
			"count":2141,
			"max":[
				0.9872310161590576,
				0.9975767135620117,
				0.9872307181358337
			],
			"min":[
				-0.9872305393218994,
				-0.9975767135620117,
				-0.9872310161590576
			],
			"type":"VEC3"
		},
		{
			"bufferView":23,
			"componentType":5126,
			"count":2141,
			"type":"VEC3"
		},
		{
			"bufferView":24,
			"componentType":5126,
			"count":2141,
			"type":"VEC2"
		},
		{
			"bufferView":25,
			"componentType":5126,
			"count":2141,
			"max":[
				0.9872310161590576,
				0.9975767135620117,
				0.9872307181358337
			],
			"min":[
				-0.9872305393218994,
				-0.9975767135620117,
				-0.9872310161590576
			],
			"type":"VEC3"
		},
		{
			"bufferView":26,
			"componentType":5126,
			"count":2141,
			"type":"VEC3"
		},
		{
			"bufferView":27,
			"componentType":5126,
			"count":2141,
			"type":"VEC2"
		},
		{
			"bufferView":28,
			"componentType":5126,
			"count":2141,
			"max":[
				0.9872310161590576,
				0.9975767135620117,
				0.9872307181358337
			],
			"min":[
				-0.9872305393218994,
				-0.9975767135620117,
				-0.9872310161590576
			],
			"type":"VEC3"
		},
		{
			"bufferView":29,
			"componentType":5126,
			"count":2141,
			"type":"VEC3"
		},
		{
			"bufferView":30,
			"componentType":5126,
			"count":2141,
			"type":"VEC2"
		},
		{
			"bufferView":31,
			"componentType":5126,
			"count":559,
			"max":[
				0.9999997019767761,
				1,
				0.9999993443489075
			],
			"min":[
				-0.9999990463256836,
				-1,
				-1
			],
			"type":"VEC3"
		},
		{
			"bufferView":32,
			"componentType":5126,
			"count":559,
			"type":"VEC3"
		},
		{
			"bufferView":33,
			"componentType":5126,
			"count":559,
			"type":"VEC2"
		},
		{
			"bufferView":34,
			"componentType":5123,
			"count":2880,
			"type":"SCALAR"
		},
		{
			"bufferView":35,
			"componentType":5126,
			"count":65,
			"max":[
				1,
				1,
				1
			],
			"min":[
				-1,
				-1,
				-1
			],
			"type":"VEC3"
		},
		{
			"bufferView":36,
			"componentType":5126,
			"count":65,
			"type":"VEC3"
		},
		{
			"bufferView":37,
			"componentType":5126,
			"count":65,
			"type":"VEC2"
		},
		{
			"bufferView":38,
			"componentType":5123,
			"count":186,
			"type":"SCALAR"
		},
		{
			"bufferView":39,
			"componentType":5126,
			"count":65,
			"max":[
				1,
				1,
				1
			],
			"min":[
				-1,
				-1,
				-1
			],
			"type":"VEC3"
		},
		{
			"bufferView":40,
			"componentType":5126,
			"count":65,
			"type":"VEC3"
		},
		{
			"bufferView":41,
			"componentType":5126,
			"count":65,
			"type":"VEC2"
		},
		{
			"bufferView":42,
			"componentType":5126,
			"count":559,
			"max":[
				0.9999997019767761,
				1,
				0.9999993443489075
			],
			"min":[
				-0.9999990463256836,
				-1,
				-1
			],
			"type":"VEC3"
		},
		{
			"bufferView":43,
			"componentType":5126,
			"count":559,
			"type":"VEC3"
		},
		{
			"bufferView":44,
			"componentType":5126,
			"count":559,
			"type":"VEC2"
		},
		{
			"bufferView":45,
			"componentType":5126,
			"count":559,
			"max":[
				0.9999997019767761,
				1,
				0.9999993443489075
			],
			"min":[
				-0.9999990463256836,
				-1,
				-1
			],
			"type":"VEC3"
		},
		{
			"bufferView":46,
			"componentType":5126,
			"count":559,
			"type":"VEC3"
		},
		{
			"bufferView":47,
			"componentType":5126,
			"count":559,
			"type":"VEC2"
		},
		{
			"bufferView":48,
			"componentType":5126,
			"count":2141,
			"max":[
				0.9872310161590576,
				0.9975767135620117,
				0.9872307181358337
			],
			"min":[
				-0.9872305393218994,
				-0.9975767135620117,
				-0.9872310161590576
			],
			"type":"VEC3"
		},
		{
			"bufferView":49,
			"componentType":5126,
			"count":2141,
			"type":"VEC3"
		},
		{
			"bufferView":50,
			"componentType":5126,
			"count":2141,
			"type":"VEC2"
		}
	],
	"bufferViews":[
		{
			"buffer":0,
			"byteLength":25692,
			"byteOffset":0,
			"target":34962
		},
		{
			"buffer":0,
			"byteLength":25692,
			"byteOffset":25692,
			"target":34962
		},
		{
			"buffer":0,
			"byteLength":17128,
			"byteOffset":51384,
			"target":34962
		},
		{
			"buffer":0,
			"byteLength":23808,
			"byteOffset":68512,
			"target":34963
		},
		{
			"buffer":0,
			"byteLength":25692,
			"byteOffset":92320,
			"target":34962
		},
		{
			"buffer":0,
			"byteLength":25692,
			"byteOffset":118012,
			"target":34962
		},
		{
			"buffer":0,
			"byteLength":17128,
			"byteOffset":143704,
			"target":34962
		},
		{
			"buffer":0,
			"byteLength":25692,
			"byteOffset":160832,
			"target":34962
		},
		{
			"buffer":0,
			"byteLength":25692,
			"byteOffset":186524,
			"target":34962
		},
		{
			"buffer":0,
			"byteLength":17128,
			"byteOffset":212216,
			"target":34962
		},
		{
			"buffer":0,
			"byteLength":25692,
			"byteOffset":229344,
			"target":34962
		},
		{
			"buffer":0,
			"byteLength":25692,
			"byteOffset":255036,
			"target":34962
		},
		{
			"buffer":0,
			"byteLength":17128,
			"byteOffset":280728,
			"target":34962
		},
		{
			"buffer":0,
			"byteLength":25692,
			"byteOffset":297856,
			"target":34962
		},
		{
			"buffer":0,
			"byteLength":25692,
			"byteOffset":323548,
			"target":34962
		},
		{
			"buffer":0,
			"byteLength":17128,
			"byteOffset":349240,
			"target":34962
		},
		{
			"buffer":0,
			"byteLength":25692,
			"byteOffset":366368,
			"target":34962
		},
		{
			"buffer":0,
			"byteLength":25692,
			"byteOffset":392060,
			"target":34962
		},
		{
			"buffer":0,
			"byteLength":17128,
			"byteOffset":417752,
			"target":34962
		},
		{
			"buffer":0,
			"byteLength":25692,
			"byteOffset":434880,
			"target":34962
		},
		{
			"buffer":0,
			"byteLength":25692,
			"byteOffset":460572,
			"target":34962
		},
		{
			"buffer":0,
			"byteLength":17128,
			"byteOffset":486264,
			"target":34962
		},
		{
			"buffer":0,
			"byteLength":25692,
			"byteOffset":503392,
			"target":34962
		},
		{
			"buffer":0,
			"byteLength":25692,
			"byteOffset":529084,
			"target":34962
		},
		{
			"buffer":0,
			"byteLength":17128,
			"byteOffset":554776,
			"target":34962
		},
		{
			"buffer":0,
			"byteLength":25692,
			"byteOffset":571904,
			"target":34962
		},
		{
			"buffer":0,
			"byteLength":25692,
			"byteOffset":597596,
			"target":34962
		},
		{
			"buffer":0,
			"byteLength":17128,
			"byteOffset":623288,
			"target":34962
		},
		{
			"buffer":0,
			"byteLength":25692,
			"byteOffset":640416,
			"target":34962
		},
		{
			"buffer":0,
			"byteLength":25692,
			"byteOffset":666108,
			"target":34962
		},
		{
			"buffer":0,
			"byteLength":17128,
			"byteOffset":691800,
			"target":34962
		},
		{
			"buffer":0,
			"byteLength":6708,
			"byteOffset":708928,
			"target":34962
		},
		{
			"buffer":0,
			"byteLength":6708,
			"byteOffset":715636,
			"target":34962
		},
		{
			"buffer":0,
			"byteLength":4472,
			"byteOffset":722344,
			"target":34962
		},
		{
			"buffer":0,
			"byteLength":5760,
			"byteOffset":726816,
			"target":34963
		},
		{
			"buffer":0,
			"byteLength":780,
			"byteOffset":732576,
			"target":34962
		},
		{
			"buffer":0,
			"byteLength":780,
			"byteOffset":733356,
			"target":34962
		},
		{
			"buffer":0,
			"byteLength":520,
			"byteOffset":734136,
			"target":34962
		},
		{
			"buffer":0,
			"byteLength":372,
			"byteOffset":734656,
			"target":34963
		},
		{
			"buffer":0,
			"byteLength":780,
			"byteOffset":735028,
			"target":34962
		},
		{
			"buffer":0,
			"byteLength":780,
			"byteOffset":735808,
			"target":34962
		},
		{
			"buffer":0,
			"byteLength":520,
			"byteOffset":736588,
			"target":34962
		},
		{
			"buffer":0,
			"byteLength":6708,
			"byteOffset":737108,
			"target":34962
		},
		{
			"buffer":0,
			"byteLength":6708,
			"byteOffset":743816,
			"target":34962
		},
		{
			"buffer":0,
			"byteLength":4472,
			"byteOffset":750524,
			"target":34962
		},
		{
			"buffer":0,
			"byteLength":6708,
			"byteOffset":754996,
			"target":34962
		},
		{
			"buffer":0,
			"byteLength":6708,
			"byteOffset":761704,
			"target":34962
		},
		{
			"buffer":0,
			"byteLength":4472,
			"byteOffset":768412,
			"target":34962
		},
		{
			"buffer":0,
			"byteLength":25692,
			"byteOffset":772884,
			"target":34962
		},
		{
			"buffer":0,
			"byteLength":25692,
			"byteOffset":798576,
			"target":34962
		},
		{
			"buffer":0,
			"byteLength":17128,
			"byteOffset":824268,
			"target":34962
		}
	],
	"buffers":[
		{
			"byteLength":841396,
			"uri":"%E0%B9%81%E0%B8%A1%E0%B8%A7.bin"
		}
	]
}
